# xmcd
#
# Track frame offsets:
#	150
#	11745
#	22678
#	34694
#	46697
#	58825
#	68576
#	78635
#	88588
#	101633
#	112521
#	125777
#	138687
#	149430
#	159987
#	171235
#	182903
#	193501
#	203952
#	216783
#	229828
#	241078
#	251196
#	261079
#	270973
#	281771
#	297120
#
# Disc length: 4118 seconds
#
# Revision: 0
# Processed by: cddbd v1.4PL0 Copyright (c) Steve Scherf et al.
# Submitted via: EasyCDDAExtractor 4.6.9.1
#
DISCID=8310141b
DTITLE=Patsy Cline - The Patsy Cline Collection (Moving Along) - Disk 2
DYEAR=1991
DGENRE=Country
TTITLE0=Just Out Of Reach
TTITLE1=I Can See An Angel
TTITLE2=Let The Teardrops Fall
TTITLE3=Never No More
TTITLE4=If I Could Only Stay Asleep
TTITLE5=I'm Moving Along
TTITLE6=I'm Blue Again
TTITLE7=Love, Love, Love Me Honey Do
TTITLE8=Yes, I Understand
TTITLE9=Gotta Lot Of Rhythm In My Soul
TTITLE10=Life's Railway To Heaven
TTITLE11=Just A Closer Walk With Thee
TTITLE12=Lovesick Blues
TTITLE13=How Can I Face Tomorrow
TTITLE14=There He Goes
TTITLE15=Crazy Dreams
TTITLE16=When Your House Is Not A Home
TTITLE17=Stupid Cupid
TTITLE18=Loose Talk
TTITLE19=I Fall To Pieces
TTITLE20=Shoes
TTITLE21=Lovin' In Vain
TTITLE22=Side By Side
TTITLE23=True Love
TTITLE24=San Antonio Rose
TTITLE25=The Wayward Wind
TTITLE26=A Poor Man's Roses (Or A Rich Man's Gold)
EXTD=
EXTT0=
EXTT1=
EXTT2=
EXTT3=
EXTT4=
EXTT5=
EXTT6=
EXTT7=
EXTT8=
EXTT9=
EXTT10=
EXTT11=
EXTT12=
EXTT13=
EXTT14=
EXTT15=
EXTT16=
EXTT17=
EXTT18=
EXTT19=
EXTT20=
EXTT21=
EXTT22=
EXTT23=
EXTT24=
EXTT25=
EXTT26=
PLAYORDER=
